<svg width="20" height="16" viewBox="0 0 20 16" fill="none" xmlns="http://www.w3.org/2000/svg">
<path d="M3.43983 10.0044L9.09409 15.822C9.20204 15.9329 9.35084 15.9971 9.50839 16C9.53757 16 9.56674 15.9971 9.59592 15.9942C9.62218 15.9971 9.65135 16 9.67761 16H9.68345C9.83808 16 9.98687 15.9358 10.0977 15.822L15.7433 10.0102L17.8322 7.92123C19.6411 6.11233 19.6411 3.16849 17.8322 1.35959C16.957 0.484318 15.7899 0 14.5529 0C13.3129 0 12.1488 0.4814 11.2735 1.35959L9.593 3.0372L7.91539 1.35959C7.04012 0.484318 5.87309 0 4.63603 0C3.39606 0 2.23195 0.4814 1.35667 1.35959C-0.452225 3.16849 -0.452225 6.11233 1.35667 7.92123L3.43983 10.0044ZM2.17943 2.18527C2.85631 1.50839 3.74617 1.16995 4.63603 1.16995C5.52589 1.16995 6.41576 1.50839 7.09263 2.18527L9.18162 4.27425C9.40919 4.50182 9.77973 4.50182 10.0073 4.27425L12.0963 2.18527C13.45 0.83151 15.6528 0.83151 17.0066 2.18527C18.3603 3.53902 18.3603 5.7418 17.0066 7.09555L14.9117 9.19037L9.593 14.6637L4.27134 9.18454L2.18235 7.09555C0.825675 5.7418 0.825675 3.53902 2.17943 2.18527Z" fill="#212121"/>
</svg>
