<svg width="20" height="20" viewBox="0 0 20 20" fill="none" xmlns="http://www.w3.org/2000/svg">
<path d="M0.0552236 7.22575C-0.0760399 7.63204 0.0302209 8.06646 0.336502 8.36336L4.36192 12.2888L3.41182 17.83C3.33994 18.2488 3.50871 18.6644 3.85562 18.9176C4.04939 19.0582 4.27753 19.1301 4.50568 19.1301C4.6807 19.1301 4.85884 19.0863 5.02449 19.002L10 16.3861L14.9755 19.002C15.3537 19.1989 15.8006 19.1676 16.1444 18.9176C16.4882 18.6675 16.6569 18.2519 16.5882 17.83L15.6381 12.2888L19.6635 8.36336C19.9698 8.06646 20.076 7.62891 19.9448 7.22575C19.8135 6.82258 19.4697 6.53192 19.0478 6.46942L13.4816 5.65996L10.9939 0.618814C10.8063 0.237524 10.425 0 9.99687 0C9.56871 0 9.19054 0.237524 8.9999 0.618814L6.51214 5.65996L0.945941 6.46942C0.530273 6.53192 0.186487 6.81945 0.0552236 7.22575ZM6.76842 6.88821C7.13095 6.83508 7.44349 6.61006 7.606 6.2819L10 1.42515L12.3971 6.2819C12.5596 6.61006 12.8722 6.83821 13.2347 6.88821L18.5915 7.66642L14.7161 11.4449C14.4536 11.7012 14.3348 12.0669 14.3942 12.4294L15.3099 17.7643L10.5157 15.2453C10.1938 15.0766 9.80623 15.0766 9.4812 15.2453L4.69008 17.7643L5.6058 12.4294C5.6683 12.0669 5.54954 11.7012 5.28701 11.4449L1.40849 7.66642L6.76842 6.88821Z" fill="#C7C7C7"/>
</svg>
