<svg width="21" height="21" viewBox="0 0 21 21" fill="none" xmlns="http://www.w3.org/2000/svg">
<path d="M20.1797 14.4375C20.6328 14.4375 21 14.0703 21 13.6172V3.28125C21 1.47192 19.5281 0 17.7188 0H3.28125C1.47192 0 0 1.47192 0 3.28125V17.7188C0 19.5281 1.47192 21 3.28125 21H17.7188C19.5281 21 21 19.5281 21 17.7188C21 17.2657 20.6328 16.8984 20.1797 16.8984C19.7266 16.8984 19.3594 17.2657 19.3594 17.7188C19.3594 18.6233 18.6233 19.3594 17.7188 19.3594H13.6992V13.3711H15.5978C16.0129 13.3711 16.3627 13.0609 16.4123 12.6488L16.521 11.7465C16.5796 11.2581 16.1984 10.8281 15.7064 10.8281H13.6992V8.08008C13.6992 7.40044 14.25 6.84961 14.9297 6.84961H15.9551C16.4082 6.84961 16.7754 6.48239 16.7754 6.0293V5.19953C16.7754 4.77928 16.458 4.42616 16.0398 4.38354C15.6239 4.34125 15.1838 4.30664 14.9297 4.30664C13.973 4.30664 13.0141 4.71023 12.2989 5.41374C11.5621 6.13857 11.1562 7.08801 11.1562 8.08729V10.8281H9.31055C8.85745 10.8281 8.49023 11.1953 8.49023 11.6484V12.5508C8.49023 13.0039 8.85745 13.3711 9.31055 13.3711H11.1562V19.3594H3.28125C2.37666 19.3594 1.64062 18.6233 1.64062 17.7188V3.28125C1.64062 2.37666 2.37666 1.64062 3.28125 1.64062H17.7188C18.6233 1.64062 19.3594 2.37666 19.3594 3.28125V13.6172C19.3594 14.0703 19.7266 14.4375 20.1797 14.4375Z" fill="white"/>
</svg>
