<svg width="25" height="20" viewBox="0 0 25 20" fill="none" xmlns="http://www.w3.org/2000/svg">
<path d="M4.66465 12.5055L11.7325 19.7775C11.8674 19.9161 12.0534 19.9964 12.2504 20C12.2868 20 12.3233 19.9964 12.3598 19.9927C12.3926 19.9964 12.4291 20 12.4619 20H12.4692C12.6625 20 12.8485 19.9198 12.987 19.7775L20.0439 12.5128L22.6552 9.90153C24.9163 7.64041 24.9163 3.96061 22.6552 1.69949C21.5611 0.605397 20.1023 0 18.556 0C17.006 0 15.5509 0.60175 14.4568 1.69949L12.3561 3.7965L10.2591 1.69949C9.16501 0.605397 7.70622 0 6.15991 0C4.60994 0 3.1548 0.60175 2.06071 1.69949C-0.200413 3.96061 -0.200413 7.64041 2.06071 9.90153L4.66465 12.5055ZM3.08916 2.73158C3.93525 1.88548 5.04758 1.46244 6.15991 1.46244C7.27223 1.46244 8.38456 1.88548 9.23066 2.73158L11.8419 5.34282C12.1264 5.62728 12.5895 5.62728 12.874 5.34282L15.4852 2.73158C17.1774 1.03939 19.9309 1.03939 21.6231 2.73158C23.3153 4.42378 23.3153 7.17724 21.6231 8.86944L19.0046 11.488L12.3561 18.3297L5.70404 11.4807L3.0928 8.86944C1.39696 7.17724 1.39696 4.42378 3.08916 2.73158Z" fill="white"/>
</svg>
