<svg width="21" height="21" viewBox="0 0 21 21" fill="none" xmlns="http://www.w3.org/2000/svg">
<path d="M10.7071 21C10.6376 21 10.568 21 10.498 20.9997C8.85186 21.0037 7.33086 20.9619 5.85168 20.8718C4.49555 20.7893 3.25766 20.3207 2.27165 19.5167C1.32024 18.7409 0.670535 17.692 0.340635 16.3993C0.0535147 15.274 0.0382934 14.1693 0.0237131 13.1008C0.0131383 12.3341 0.00224313 11.4257 0 10.5019C0.00224313 9.57423 0.0131383 8.6658 0.0237131 7.89916C0.0382934 6.83082 0.0535147 5.72612 0.340635 4.60059C0.670535 3.30796 1.32024 2.25901 2.27165 1.48324C3.25766 0.679264 4.49555 0.210627 5.85184 0.128115C7.33102 0.0382331 8.85234 -0.00374392 10.502 0.000261521C12.1486 -0.00326327 13.6691 0.0382331 15.1483 0.128115C16.5045 0.210627 17.7423 0.679264 18.7284 1.48324C19.6799 2.25901 20.3295 3.30796 20.6594 4.60059C20.9465 5.72596 20.9617 6.83082 20.9763 7.89916C20.9869 8.6658 20.9979 9.57423 21 10.498C20.9979 11.4257 20.9869 12.3341 20.9763 13.1008C20.9702 13.5539 20.5959 13.916 20.1449 13.9099C19.6918 13.9036 19.3297 13.5313 19.3358 13.0784C19.3462 12.3162 19.3572 11.4137 19.3593 10.498C19.3572 9.58625 19.3462 8.68374 19.3358 7.92159C19.3225 6.9489 19.3087 5.94306 19.0696 5.00626C18.8285 4.0613 18.3648 3.30379 17.6915 2.75472C16.9633 2.1608 16.0741 1.82803 15.0487 1.7657C13.6042 1.6779 12.1174 1.63737 10.502 1.64073C8.88278 1.63689 7.39575 1.6779 5.95134 1.7657C4.92591 1.82803 4.03683 2.1608 3.30845 2.75456C2.63519 3.30363 2.17151 4.06114 1.93037 5.00626C1.69132 5.94306 1.67754 6.9489 1.66424 7.92159C1.65383 8.68374 1.64293 9.58625 1.64069 10.5019C1.64293 11.4137 1.65383 12.3162 1.66424 13.0784C1.67754 14.051 1.69132 15.0569 1.93037 15.9937C2.17151 16.9386 2.63519 17.6961 3.30845 18.2452C4.03683 18.8391 4.92591 19.1719 5.95134 19.2342C7.39575 19.322 8.88311 19.3631 10.4982 19.3591C12.1175 19.3629 13.6042 19.322 15.0487 19.2342C16.0741 19.1719 16.9632 18.8391 17.6915 18.2452C18.1765 17.8496 18.5555 17.3421 18.8178 16.7364C18.9978 16.3208 19.4808 16.1297 19.8965 16.3098C20.3123 16.4899 20.5033 16.9728 20.3234 17.3885C19.9557 18.2375 19.4191 18.9535 18.7284 19.5167C17.7423 20.3208 16.5045 20.7893 15.1483 20.8718C13.7318 20.958 12.2766 21 10.7071 21ZM15.5861 10.5C15.5861 7.67293 13.286 5.373 10.4589 5.373C7.63192 5.373 5.33175 7.67293 5.33175 10.5C5.33175 13.327 7.63192 15.6269 10.4589 15.6269C13.286 15.6269 15.5861 13.327 15.5861 10.5ZM13.9454 10.5C13.9454 12.4223 12.3814 13.9863 10.4589 13.9863C8.53654 13.9863 6.97244 12.4223 6.97244 10.5C6.97244 8.57768 8.53654 7.01363 10.4589 7.01363C12.3814 7.01363 13.9454 8.57768 13.9454 10.5ZM16.1603 3.73237C15.4808 3.73237 14.9298 4.2832 14.9298 4.96285C14.9298 5.64249 15.4808 6.19332 16.1603 6.19332C16.84 6.19332 17.3908 5.64249 17.3908 4.96285C17.3908 4.2832 16.84 3.73237 16.1603 3.73237Z" fill="white"/>
</svg>
