<svg width="21" height="21" viewBox="0 0 21 21" fill="none" xmlns="http://www.w3.org/2000/svg">
<path d="M4.94879 21C4.65143 21 4.35631 20.917 4.09724 20.7536C3.64895 20.4705 3.37113 19.9851 3.35415 19.455L3.3024 17.7572C1.17343 15.8481 0 13.1677 0 10.2103C0 7.38764 1.08195 4.79184 3.04621 2.90103C4.98997 1.03024 7.63708 0 10.5 0C13.3629 0 16.01 1.03024 17.9538 2.90103C19.9181 4.79184 21 7.38764 21 10.2103C21 12.2122 20.4514 14.1252 19.4135 15.7425C19.1687 16.1239 18.6613 16.2348 18.28 15.9899C17.8988 15.7453 17.788 15.2377 18.0328 14.8565C18.9007 13.5041 19.3594 11.8973 19.3594 10.2103C19.3594 5.32474 15.5507 1.6407 10.5 1.6407C5.44931 1.6407 1.64062 5.32474 1.64062 10.2103C1.64062 12.6988 2.62324 14.9483 4.40742 16.5445C4.7365 16.8409 4.9254 17.2424 4.94126 17.6769C4.94142 17.6785 4.94142 17.6803 4.94142 17.6821L4.99205 19.3364L6.85009 18.5165C7.18462 18.3693 7.56194 18.3409 7.91329 18.4367C8.73905 18.6646 9.60855 18.7798 10.5 18.7798C12.3298 18.7798 14.0636 18.29 15.5132 17.3631C15.895 17.119 16.4022 17.2307 16.6463 17.6125C16.8903 17.9942 16.7786 18.5015 16.397 18.7455C14.6828 19.8414 12.6437 20.4206 10.5 20.4206C9.46788 20.4206 8.45787 20.2872 7.49785 20.0241L5.59206 20.8649C5.38554 20.9555 5.16669 21 4.94879 21ZM5.33764 13.5616L8.4034 11.1978C8.61056 11.0424 8.89574 11.0403 9.10483 11.1959L11.3733 12.9593C12.0533 13.4667 13.0265 13.2877 13.4797 12.5723L16.3311 8.05049C16.6065 7.61884 16.0712 7.13096 15.6628 7.44003L12.5985 9.76217C12.3914 9.91774 12.1062 9.91967 11.8971 9.76409L9.62858 8.04183C8.94862 7.5344 7.97546 7.71321 7.5222 8.42862L4.66937 12.951C4.39396 13.3826 4.92924 13.8706 5.33764 13.5616Z" fill="white"/>
</svg>
