<svg width="21" height="18" viewBox="0 0 21 18" fill="none" xmlns="http://www.w3.org/2000/svg">
<path d="M18.5083 2.85437L18.4979 2.81242C19.3876 2.25829 20.106 1.34479 20.4256 0.298287C19.5922 0.813465 18.6171 1.20414 17.6366 1.40621C16.8503 0.535819 15.8012 0 14.5604 0C12.1827 0 10.2128 2.00012 10.2128 4.47431C10.2128 4.85349 10.243 5.22069 10.2832 5.54228C8.18947 5.37333 6.22202 4.66756 4.4228 3.43779C2.85172 2.36416 2.00482 1.27122 1.99761 1.2619C1.7669 0.958115 1.36812 0.853747 1.0267 1.00805C0.685121 1.16236 0.486454 1.53621 0.542689 1.91856C0.562236 2.05056 0.962775 4.65957 2.47633 6.93285C2.12354 6.87575 1.91302 6.77388 1.87264 6.75308C1.57977 6.57281 1.22072 6.60593 0.954284 6.82665C0.686243 7.0487 0.590434 7.42705 0.697298 7.76546C0.731904 7.87532 1.45175 10.056 4.08009 11.2117C3.51694 11.3805 3.01738 11.3777 3.01097 11.3777C3.00537 11.3777 2.99976 11.3775 2.99415 11.3775C2.64696 11.3775 2.33663 11.6051 2.22079 11.9463C2.10287 12.293 2.21262 12.6792 2.49268 12.9041C2.55596 12.9549 3.73258 13.8837 5.64476 14.3531C4.97586 14.7356 4.18632 14.9658 3.28206 15.0409C2.03061 15.1447 1.02414 14.8984 1.01597 14.8962C0.599886 14.7904 0.175475 15.0347 0.0413741 15.4573C-0.0927265 15.88 0.108985 16.3387 0.504237 16.5103C0.622637 16.5616 3.43619 17.7692 6.23451 17.7692C8.17697 17.7692 9.63189 17.5855 10.9516 17.1733C12.5984 16.6588 13.9966 15.7814 15.2257 14.4911C15.5443 14.1565 15.5416 13.6168 15.2196 13.2858C14.8974 12.9547 14.3781 12.9575 14.0595 13.2923C11.8679 15.5933 9.34623 16.0649 6.23451 16.0649C6.16162 16.0649 6.08872 16.0639 6.01566 16.0619C6.88371 15.6479 7.62807 15.0575 8.22247 14.304C8.42066 14.0526 8.46424 13.7062 8.33446 13.4104C8.20485 13.1148 7.92463 12.9216 7.61205 12.9119C6.75554 12.8858 5.999 12.7153 5.37576 12.5038C5.83846 12.2596 6.28915 11.9127 6.64467 11.4201C6.81546 11.1836 6.85599 10.872 6.75185 10.5969C6.64771 10.3217 6.41364 10.1223 6.13358 10.07C4.75636 9.81285 3.84169 9.23692 3.24841 8.66997C3.58134 8.652 3.94711 8.59956 4.34173 8.49719C4.63108 8.42196 4.85842 8.18958 4.93533 7.89013C5.01223 7.59085 4.92683 7.27158 4.71198 7.05669C3.96842 6.3123 3.42802 5.38981 3.04141 4.51959C3.17632 4.61996 3.31699 4.721 3.4631 4.82203C5.09154 5.94644 7.76938 7.28673 11.2794 7.28673C11.5346 7.28673 11.7753 7.16272 11.9303 6.95216C12.0856 6.74176 12.1375 6.46744 12.0712 6.21143C12.0689 6.20311 11.8536 5.36301 11.8536 4.47431C11.8536 3.74041 12.1354 3.04729 12.6473 2.52279C13.1621 1.99513 13.8416 1.7045 14.5606 1.7045C15.2875 1.7045 15.92 1.99663 16.4406 2.57273C16.8164 2.94026 17.2266 3.92035 17.2266 4.51193V5.02827C17.2266 5.04625 17.2284 5.07072 17.2325 5.09968C17.229 5.13231 17.2266 5.16526 17.2266 5.19872C17.2266 7.13609 16.8815 8.8609 16.2007 10.325C16.0037 10.749 16.1748 11.2585 16.5827 11.4633C16.6977 11.5208 16.8192 11.5481 16.9389 11.5481C17.2439 11.5481 17.5366 11.3707 17.6781 11.0664C18.4671 9.36908 18.8672 7.39493 18.8672 5.19872C18.8672 5.16626 18.865 5.1343 18.8616 5.10284C18.8654 5.07355 18.8672 5.04825 18.8672 5.02827V4.4317C19.7099 3.79933 20.4235 2.94525 21 2.0454C20.9998 2.0454 19.4877 2.78979 18.5083 2.85437Z" fill="white"/>
</svg>
