<svg width="21" height="15" viewBox="0 0 21 15" fill="none" xmlns="http://www.w3.org/2000/svg">
<path d="M10.4993 14.5385C10.4975 14.5385 10.4956 14.5385 10.4937 14.5385C9.85999 14.5343 4.25814 14.4854 2.67103 14.0741C1.56184 13.7885 0.686252 12.9506 0.387286 11.8878C-0.0279981 10.3942 -0.00156223 7.5185 0.00132169 7.28888C-0.00140201 7.06033 -0.0281584 4.16086 0.386004 2.65495C0.386485 2.65357 0.386805 2.65204 0.387286 2.65065C0.682887 1.6 1.57818 0.736148 2.6683 0.449732C2.67103 0.448964 2.67391 0.44835 2.67663 0.447583C4.24581 0.0524944 9.85871 0.0041443 10.4937 0H10.505C11.1403 0.0041443 16.757 0.0531082 18.3296 0.464927C19.4367 0.750116 20.3123 1.58788 20.6112 2.65065C21.0416 4.15472 21.0014 7.06217 20.9972 7.30622C20.9978 7.36025 20.9999 7.58082 20.9962 7.90638C20.9913 8.33753 20.625 8.68381 20.1761 8.68381C20.173 8.68381 20.1702 8.68381 20.1671 8.68366C19.714 8.67905 19.3508 8.32341 19.3556 7.88949C19.3596 7.54137 19.3566 7.31681 19.3566 7.31451C19.3564 7.30638 19.3566 7.29809 19.3566 7.2898C19.3716 6.48642 19.3421 4.16056 19.0281 3.06293C18.8798 2.536 18.448 2.12295 17.9002 1.98189C16.7407 1.67813 12.1706 1.58296 10.4993 1.57176C8.82835 1.58296 4.26359 1.67567 3.09769 1.96669C2.56048 2.10944 2.11892 2.53722 1.97168 3.05802C1.60702 4.38726 1.64147 7.24989 1.64179 7.27859V7.29931C1.63089 8.09317 1.66919 10.3922 1.97184 11.4811C2.1186 12.0025 2.55038 12.4155 3.09801 12.5567C4.26904 12.8602 8.83155 12.9555 10.4991 12.9667C12.171 12.9555 16.7402 12.8628 17.9026 12.5713C18.4491 12.4296 18.8799 12.017 19.0272 11.4939C19.1451 11.0749 19.5953 10.8267 20.0327 10.9398C20.4701 11.0528 20.7292 11.484 20.6112 11.9032C20.3121 12.9658 19.4367 13.8037 18.3262 14.0898C18.3248 14.0901 18.3232 14.0906 18.3217 14.0909C16.7527 14.486 11.1396 14.5343 10.5049 14.5385C10.5031 14.5385 10.5012 14.5385 10.4993 14.5385ZM9.57064 10.1956L13.7608 7.87829C14.0018 7.7449 14.1505 7.49763 14.1505 7.22994C14.1505 6.96225 14.0018 6.71497 13.7608 6.58159L9.57064 4.26432C9.33047 4.13155 9.03503 4.13201 8.7955 4.2657C8.55582 4.39924 8.40826 4.64574 8.40826 4.91251V9.54721C8.40826 9.81398 8.55582 10.0605 8.7955 10.1942C8.91567 10.2613 9.04993 10.2949 9.18419 10.2949C9.31765 10.2949 9.45095 10.2617 9.57064 10.1956Z" fill="white"/>
</svg>
